<mxfile host="app.diagrams.net" modified="2022-09-09T08:19:46.676Z" agent="5.0 (Macintosh; Intel Mac OS X 10_15_7) AppleWebKit/605.1.15 (KHTML, like Gecko) Version/15.6.1 Safari/605.1.15" etag="hTzLgT0YLfwIAIl4ivLB" version="20.3.0" type="github">
  <diagram id="RpzyaWzfz7FECgylNTt5" name="Page-1">
    <mxGraphModel dx="2671" dy="1342" grid="1" gridSize="10" guides="1" tooltips="1" connect="1" arrows="1" fold="1" page="1" pageScale="1" pageWidth="827" pageHeight="1169" math="0" shadow="0">
      <root>
        <mxCell id="0" />
        <mxCell id="1" style="" parent="0" />
        <mxCell id="siySOapZX41ivjqBgdVN-3" value="&lt;font style=&quot;font-size: 24px;&quot;&gt;AZ104 - Microsoft Azure Administrator&lt;/font&gt;" style="text;html=1;strokeColor=none;fillColor=none;align=left;verticalAlign=middle;whiteSpace=wrap;rounded=0;fontStyle=1" parent="1" vertex="1">
          <mxGeometry x="40" y="40" width="520" height="30" as="geometry" />
        </mxCell>
        <mxCell id="x6Mh1ce0G-waH1WDNx8j-17" value="&lt;font style=&quot;font-size: 24px;&quot;&gt;CH1 - Azure Administration&lt;/font&gt;" style="rounded=0;whiteSpace=wrap;html=1;strokeWidth=2;fontSize=18;strokeColor=#808080;fillColor=#E6E6E6;verticalAlign=top;align=left;spacingLeft=5;" vertex="1" parent="1">
          <mxGeometry y="80" width="1000" height="660" as="geometry" />
        </mxCell>
        <mxCell id="x6Mh1ce0G-waH1WDNx8j-27" value="&lt;span style=&quot;caret-color: rgb(0, 0, 0); color: rgb(0, 0, 0); font-family: Helvetica; font-size: 24px; font-style: normal; font-variant-caps: normal; font-weight: 400; letter-spacing: normal; text-align: center; text-indent: 0px; text-transform: none; word-spacing: 0px; -webkit-text-stroke-width: 0px; background-color: rgb(248, 249, 250); text-decoration: none; float: none; display: inline !important;&quot;&gt;Legend&lt;/span&gt;&lt;br style=&quot;caret-color: rgb(0, 0, 0); color: rgb(0, 0, 0); font-family: Helvetica; font-size: 24px; font-style: normal; font-variant-caps: normal; font-weight: 400; letter-spacing: normal; text-align: center; text-indent: 0px; text-transform: none; word-spacing: 0px; -webkit-text-stroke-width: 0px; text-decoration: none;&quot;&gt;&lt;span style=&quot;caret-color: rgb(0, 0, 0); color: rgb(0, 0, 0); font-family: Helvetica; font-size: 24px; font-style: normal; font-variant-caps: normal; font-weight: 400; letter-spacing: normal; text-align: center; text-indent: 0px; text-transform: none; word-spacing: 0px; -webkit-text-stroke-width: 0px; background-color: rgb(248, 249, 250); text-decoration: none; float: none; display: inline !important;&quot;&gt;Types of information?&lt;br&gt;E.g. Nice to know&lt;br&gt;Diagram&lt;br&gt;Key information&lt;br&gt;&lt;br&gt;Types of containers?&lt;br&gt;Chapters&lt;br&gt;Topics&lt;br&gt;&lt;br&gt;&lt;/span&gt;" style="rounded=0;whiteSpace=wrap;html=1;strokeWidth=2;fontSize=24;" vertex="1" parent="1">
          <mxGeometry x="200" y="890" width="360" height="350" as="geometry" />
        </mxCell>
        <mxCell id="siySOapZX41ivjqBgdVN-1" value="CH1 - Azure Administration" parent="0" />
        <mxCell id="x6Mh1ce0G-waH1WDNx8j-12" value="&lt;p&gt;&lt;b&gt;&lt;font style=&quot;font-size: 18px;&quot;&gt;Ways to Interact with Azure Portal&lt;/font&gt;&lt;/b&gt;&lt;/p&gt;" style="rounded=0;whiteSpace=wrap;html=1;fontSize=12;align=left;verticalAlign=top;spacingLeft=5;strokeWidth=2;" vertex="1" parent="siySOapZX41ivjqBgdVN-1">
          <mxGeometry x="360" y="140" width="240" height="380" as="geometry" />
        </mxCell>
        <mxCell id="x6Mh1ce0G-waH1WDNx8j-11" value="&lt;p&gt;&lt;b&gt;&lt;font style=&quot;font-size: 18px;&quot;&gt;ARM Management Layers&lt;/font&gt;&lt;/b&gt;&lt;/p&gt;" style="rounded=0;whiteSpace=wrap;html=1;fontSize=12;align=left;verticalAlign=top;spacingLeft=5;strokeWidth=2;" vertex="1" parent="siySOapZX41ivjqBgdVN-1">
          <mxGeometry x="20" y="140" width="315" height="580" as="geometry" />
        </mxCell>
        <mxCell id="siySOapZX41ivjqBgdVN-6" style="edgeStyle=orthogonalEdgeStyle;rounded=0;orthogonalLoop=1;jettySize=auto;html=1;fontSize=12;" parent="siySOapZX41ivjqBgdVN-1" source="siySOapZX41ivjqBgdVN-4" target="siySOapZX41ivjqBgdVN-5" edge="1">
          <mxGeometry relative="1" as="geometry" />
        </mxCell>
        <mxCell id="siySOapZX41ivjqBgdVN-4" value="&lt;b&gt;Azure Resource Manager (ARM)&lt;br&gt;&lt;/b&gt;Orchestration layer to manage azure resources" style="rounded=0;whiteSpace=wrap;html=1;fontSize=12;" parent="siySOapZX41ivjqBgdVN-1" vertex="1">
          <mxGeometry x="80" y="200" width="200" height="80" as="geometry" />
        </mxCell>
        <mxCell id="siySOapZX41ivjqBgdVN-13" style="edgeStyle=orthogonalEdgeStyle;rounded=0;orthogonalLoop=1;jettySize=auto;html=1;fontSize=12;" parent="siySOapZX41ivjqBgdVN-1" source="siySOapZX41ivjqBgdVN-5" target="siySOapZX41ivjqBgdVN-7" edge="1">
          <mxGeometry relative="1" as="geometry" />
        </mxCell>
        <mxCell id="siySOapZX41ivjqBgdVN-5" value="&lt;b&gt;Azure Resource Provider (ARP)&lt;/b&gt;&lt;br&gt;Provides and deploy the actual resources in cloud. Each service has its own ARP." style="rounded=0;whiteSpace=wrap;html=1;fontSize=12;" parent="siySOapZX41ivjqBgdVN-1" vertex="1">
          <mxGeometry x="80" y="320" width="200" height="80" as="geometry" />
        </mxCell>
        <mxCell id="siySOapZX41ivjqBgdVN-7" value="&lt;b&gt;Subscriptions (Subs)&lt;/b&gt;&lt;br&gt;Logical containers, primarily for billing purposes as billing units." style="rounded=0;whiteSpace=wrap;html=1;fontSize=12;align=left;verticalAlign=top;spacingLeft=5;" parent="siySOapZX41ivjqBgdVN-1" vertex="1">
          <mxGeometry x="40" y="440" width="280" height="260" as="geometry" />
        </mxCell>
        <mxCell id="siySOapZX41ivjqBgdVN-10" value="&lt;b&gt;Resource Groups (RGs)&lt;/b&gt;&lt;br&gt;Next level containers for resources, usually classifying things like assets/individual applications" style="rounded=0;whiteSpace=wrap;html=1;fontSize=12;spacingLeft=5;align=left;verticalAlign=top;" parent="siySOapZX41ivjqBgdVN-1" vertex="1">
          <mxGeometry x="60" y="500" width="240" height="180" as="geometry" />
        </mxCell>
        <mxCell id="siySOapZX41ivjqBgdVN-11" value="&lt;b&gt;Resources (Res)&lt;/b&gt;" style="rounded=0;whiteSpace=wrap;html=1;fontSize=12;align=center;verticalAlign=middle;spacingLeft=0;" parent="siySOapZX41ivjqBgdVN-1" vertex="1">
          <mxGeometry x="80" y="580" width="200" height="80" as="geometry" />
        </mxCell>
        <mxCell id="x6Mh1ce0G-waH1WDNx8j-1" value="&lt;b&gt;Cloud Portal&lt;/b&gt;&lt;br&gt;Front end user interface" style="rounded=0;whiteSpace=wrap;html=1;fontSize=12;align=center;verticalAlign=middle;spacingLeft=0;" vertex="1" parent="siySOapZX41ivjqBgdVN-1">
          <mxGeometry x="380" y="220" width="200" height="80" as="geometry" />
        </mxCell>
        <mxCell id="x6Mh1ce0G-waH1WDNx8j-2" value="&lt;b&gt;Cloud Shell&lt;/b&gt;&lt;br&gt;Executes&amp;nbsp;powershelgl cmdlets for resource management&lt;br&gt;Can be used to automate tasks" style="rounded=0;whiteSpace=wrap;html=1;fontSize=12;align=center;verticalAlign=middle;spacingLeft=0;" vertex="1" parent="siySOapZX41ivjqBgdVN-1">
          <mxGeometry x="380" y="320" width="200" height="80" as="geometry" />
        </mxCell>
        <mxCell id="x6Mh1ce0G-waH1WDNx8j-4" value="&lt;b&gt;Azure CLI&lt;/b&gt;&lt;br&gt;Another way to interact with azure via Commands (Bash)&lt;br&gt;Can be used to automate tasks" style="rounded=0;whiteSpace=wrap;html=1;fontSize=12;align=center;verticalAlign=middle;spacingLeft=0;" vertex="1" parent="siySOapZX41ivjqBgdVN-1">
          <mxGeometry x="380" y="420" width="200" height="80" as="geometry" />
        </mxCell>
        <mxCell id="x6Mh1ce0G-waH1WDNx8j-13" value="&lt;p&gt;&lt;b&gt;&lt;font style=&quot;font-size: 18px;&quot;&gt;ARM Templates&lt;/font&gt;&lt;/b&gt;&lt;/p&gt;&lt;p&gt;&lt;span style=&quot;text-align: center;&quot;&gt;An IaC approach to deploying and managing&amp;nbsp;&lt;/span&gt;&lt;br style=&quot;text-align: center;&quot;&gt;&lt;span style=&quot;text-align: center;&quot;&gt;Azure resources (Json format)&lt;/span&gt;&lt;b&gt;&lt;font style=&quot;font-size: 18px;&quot;&gt;&lt;br&gt;&lt;/font&gt;&lt;/b&gt;&lt;/p&gt;" style="rounded=0;whiteSpace=wrap;html=1;fontSize=12;align=left;verticalAlign=top;spacingLeft=5;strokeWidth=2;" vertex="1" parent="siySOapZX41ivjqBgdVN-1">
          <mxGeometry x="620" y="140" width="340" height="380" as="geometry" />
        </mxCell>
        <mxCell id="x6Mh1ce0G-waH1WDNx8j-14" style="edgeStyle=orthogonalEdgeStyle;rounded=0;orthogonalLoop=1;jettySize=auto;html=1;entryX=0.5;entryY=0;entryDx=0;entryDy=0;fontSize=18;strokeWidth=1;endArrow=block;endFill=1;" edge="1" parent="siySOapZX41ivjqBgdVN-1" source="x6Mh1ce0G-waH1WDNx8j-6" target="x6Mh1ce0G-waH1WDNx8j-7">
          <mxGeometry relative="1" as="geometry" />
        </mxCell>
        <mxCell id="x6Mh1ce0G-waH1WDNx8j-6" value="ARM Template" style="rounded=0;whiteSpace=wrap;html=1;" vertex="1" parent="siySOapZX41ivjqBgdVN-1">
          <mxGeometry x="640" y="240" width="120" height="60" as="geometry" />
        </mxCell>
        <mxCell id="x6Mh1ce0G-waH1WDNx8j-15" style="edgeStyle=orthogonalEdgeStyle;rounded=0;orthogonalLoop=1;jettySize=auto;html=1;entryX=0.5;entryY=0;entryDx=0;entryDy=0;strokeWidth=1;fontSize=18;endArrow=block;endFill=1;" edge="1" parent="siySOapZX41ivjqBgdVN-1" source="x6Mh1ce0G-waH1WDNx8j-7" target="x6Mh1ce0G-waH1WDNx8j-8">
          <mxGeometry relative="1" as="geometry" />
        </mxCell>
        <mxCell id="x6Mh1ce0G-waH1WDNx8j-7" value="ARP" style="rounded=0;whiteSpace=wrap;html=1;" vertex="1" parent="siySOapZX41ivjqBgdVN-1">
          <mxGeometry x="640" y="340" width="120" height="60" as="geometry" />
        </mxCell>
        <mxCell id="x6Mh1ce0G-waH1WDNx8j-8" value="Create Resources" style="rounded=0;whiteSpace=wrap;html=1;" vertex="1" parent="siySOapZX41ivjqBgdVN-1">
          <mxGeometry x="640" y="440" width="120" height="60" as="geometry" />
        </mxCell>
        <mxCell id="x6Mh1ce0G-waH1WDNx8j-9" value="&lt;b&gt;Key Template Entries&lt;br&gt;&lt;/b&gt;&lt;ol&gt;&lt;li&gt;Parameters&lt;/li&gt;&lt;li&gt;Variables&lt;/li&gt;&lt;li&gt;Resources&lt;/li&gt;&lt;li&gt;Outputs&lt;/li&gt;&lt;/ol&gt;" style="rounded=0;whiteSpace=wrap;html=1;align=left;verticalAlign=top;" vertex="1" parent="siySOapZX41ivjqBgdVN-1">
          <mxGeometry x="780" y="240" width="160" height="260" as="geometry" />
        </mxCell>
        <mxCell id="x6Mh1ce0G-waH1WDNx8j-74" value="&lt;b&gt;Management Group Nesting Example&lt;/b&gt;" style="rounded=0;whiteSpace=wrap;html=1;fontSize=12;spacingLeft=5;align=left;verticalAlign=top;strokeWidth=2;" vertex="1" parent="siySOapZX41ivjqBgdVN-1">
          <mxGeometry x="1030" y="1120" width="440" height="270" as="geometry" />
        </mxCell>
        <mxCell id="x6Mh1ce0G-waH1WDNx8j-18" value="CH 4 - Governance + Compliance" parent="0" />
        <mxCell id="x6Mh1ce0G-waH1WDNx8j-75" style="edgeStyle=orthogonalEdgeStyle;rounded=1;orthogonalLoop=1;jettySize=auto;html=1;strokeWidth=2;fontSize=12;startArrow=none;startFill=0;endArrow=block;endFill=1;" edge="1" parent="x6Mh1ce0G-waH1WDNx8j-18" source="x6Mh1ce0G-waH1WDNx8j-50" target="x6Mh1ce0G-waH1WDNx8j-74">
          <mxGeometry relative="1" as="geometry" />
        </mxCell>
        <mxCell id="x6Mh1ce0G-waH1WDNx8j-50" value="&lt;p style=&quot;text-align: left;&quot;&gt;&lt;span style=&quot;text-align: center;&quot;&gt;&lt;font size=&quot;4&quot;&gt;&lt;b&gt;Management (Mgt) Groups&lt;br&gt;&lt;/b&gt;&lt;/font&gt;&lt;/span&gt;&lt;span style=&quot;text-align: center;&quot;&gt;Logical containers to manage subscriptions&lt;/span&gt;&lt;/p&gt;" style="rounded=0;whiteSpace=wrap;html=1;fontSize=12;align=left;verticalAlign=top;spacingLeft=60;strokeWidth=2;spacingTop=-7;" vertex="1" parent="x6Mh1ce0G-waH1WDNx8j-18">
          <mxGeometry x="1080" y="600" width="340" height="480" as="geometry" />
        </mxCell>
        <mxCell id="x6Mh1ce0G-waH1WDNx8j-28" value="&lt;p style=&quot;text-align: left;&quot;&gt;&lt;span style=&quot;text-align: center;&quot;&gt;&lt;font size=&quot;4&quot;&gt;&lt;b&gt;Managing Subscriptions&lt;br&gt;&lt;/b&gt;&lt;/font&gt;&lt;/span&gt;&lt;span style=&quot;text-align: center;&quot;&gt;Billing Unit / Logical Container&lt;/span&gt;&lt;/p&gt;" style="rounded=0;whiteSpace=wrap;html=1;fontSize=12;align=left;verticalAlign=top;spacingLeft=60;strokeWidth=2;spacingTop=-7;" vertex="1" parent="x6Mh1ce0G-waH1WDNx8j-18">
          <mxGeometry x="1080" y="120" width="340" height="460" as="geometry" />
        </mxCell>
        <mxCell id="x6Mh1ce0G-waH1WDNx8j-35" value="1" style="rounded=0;whiteSpace=wrap;html=1;strokeWidth=2;fontSize=24;" vertex="1" parent="x6Mh1ce0G-waH1WDNx8j-18">
          <mxGeometry x="1090" y="130" width="40" height="40" as="geometry" />
        </mxCell>
        <mxCell id="x6Mh1ce0G-waH1WDNx8j-40" style="edgeStyle=orthogonalEdgeStyle;rounded=0;orthogonalLoop=1;jettySize=auto;html=1;strokeWidth=1;fontSize=14;endArrow=ERmany;endFill=0;startArrow=ERone;startFill=0;" edge="1" parent="x6Mh1ce0G-waH1WDNx8j-18" source="x6Mh1ce0G-waH1WDNx8j-36" target="x6Mh1ce0G-waH1WDNx8j-39">
          <mxGeometry relative="1" as="geometry" />
        </mxCell>
        <mxCell id="x6Mh1ce0G-waH1WDNx8j-36" value="Subscriptions" style="rounded=0;whiteSpace=wrap;html=1;" vertex="1" parent="x6Mh1ce0G-waH1WDNx8j-18">
          <mxGeometry x="1120" y="200" width="100" height="40" as="geometry" />
        </mxCell>
        <mxCell id="x6Mh1ce0G-waH1WDNx8j-39" value="RGs" style="rounded=0;whiteSpace=wrap;html=1;" vertex="1" parent="x6Mh1ce0G-waH1WDNx8j-18">
          <mxGeometry x="1280" y="200" width="100" height="40" as="geometry" />
        </mxCell>
        <mxCell id="x6Mh1ce0G-waH1WDNx8j-41" value="One Sub can contain multiple RGs" style="text;html=1;align=left;verticalAlign=middle;resizable=0;points=[];autosize=1;strokeColor=none;fillColor=none;fontSize=12;" vertex="1" parent="x6Mh1ce0G-waH1WDNx8j-18">
          <mxGeometry x="1145" y="240" width="210" height="30" as="geometry" />
        </mxCell>
        <mxCell id="x6Mh1ce0G-waH1WDNx8j-44" value="&lt;div style=&quot;&quot;&gt;&lt;b&gt;General Information&lt;/b&gt;&lt;/div&gt;&lt;ul style=&quot;&quot;&gt;&lt;li&gt;Often used as a scope to enforce governance and security&lt;/li&gt;&lt;li&gt;Multiple subscriptions in any org are associated w/ 1 AAD tenant&lt;/li&gt;&lt;/ul&gt;" style="text;html=1;strokeColor=none;fillColor=none;align=left;verticalAlign=middle;whiteSpace=wrap;rounded=0;strokeWidth=2;fontSize=12;" vertex="1" parent="x6Mh1ce0G-waH1WDNx8j-18">
          <mxGeometry x="1090" y="280" width="310" height="85" as="geometry" />
        </mxCell>
        <mxCell id="x6Mh1ce0G-waH1WDNx8j-45" value="&lt;div style=&quot;&quot;&gt;&lt;div style=&quot;&quot;&gt;&lt;b&gt;Azure Subscription Types&lt;/b&gt;&lt;/div&gt;&lt;ul style=&quot;&quot;&gt;&lt;li&gt;Enterprise Agreement&lt;br&gt;&lt;/li&gt;&lt;li&gt;Pay-As-You-Go&lt;/li&gt;&lt;li&gt;Free Trial&lt;/li&gt;&lt;li&gt;etc.&lt;/li&gt;&lt;/ul&gt;&lt;/div&gt;" style="text;html=1;strokeColor=none;fillColor=none;align=left;verticalAlign=middle;whiteSpace=wrap;rounded=0;strokeWidth=2;fontSize=12;" vertex="1" parent="x6Mh1ce0G-waH1WDNx8j-18">
          <mxGeometry x="1090" y="380" width="310" height="85" as="geometry" />
        </mxCell>
        <mxCell id="x6Mh1ce0G-waH1WDNx8j-46" value="&lt;div style=&quot;&quot;&gt;&lt;div style=&quot;&quot;&gt;&lt;b&gt;To Remember&lt;/b&gt;&lt;/div&gt;&lt;div style=&quot;&quot;&gt;&lt;ul&gt;&lt;li&gt;Often used to manage different env, departments, regions&lt;/li&gt;&lt;li&gt;Used as scope to implement IAM, governance, compliance controls.&lt;/li&gt;&lt;/ul&gt;&lt;/div&gt;&lt;/div&gt;" style="text;html=1;strokeColor=none;fillColor=none;align=left;verticalAlign=middle;whiteSpace=wrap;rounded=0;strokeWidth=2;fontSize=12;" vertex="1" parent="x6Mh1ce0G-waH1WDNx8j-18">
          <mxGeometry x="1090" y="475" width="310" height="85" as="geometry" />
        </mxCell>
        <mxCell id="x6Mh1ce0G-waH1WDNx8j-49" value="2" style="rounded=0;whiteSpace=wrap;html=1;strokeWidth=2;fontSize=24;" vertex="1" parent="x6Mh1ce0G-waH1WDNx8j-18">
          <mxGeometry x="1090" y="610" width="40" height="40" as="geometry" />
        </mxCell>
        <mxCell id="x6Mh1ce0G-waH1WDNx8j-51" value="&lt;div style=&quot;&quot;&gt;&lt;b&gt;General Information&lt;/b&gt;&lt;/div&gt;&lt;ul style=&quot;&quot;&gt;&lt;li&gt;Mgt groups can be &lt;b&gt;nested&lt;/b&gt; within each other&lt;br&gt;&lt;/li&gt;&lt;li&gt;Also used as a mechanism to enforce scoping&lt;/li&gt;&lt;li&gt;Has a &lt;b&gt;Parent-Child &lt;/b&gt;relationship w/ &lt;b&gt;subscriptions &amp;amp; Management Groups&lt;/b&gt;&lt;/li&gt;&lt;li&gt;Supports 6 Layers of hierarchy&lt;/li&gt;&lt;/ul&gt;" style="text;html=1;strokeColor=none;fillColor=none;align=left;verticalAlign=middle;whiteSpace=wrap;rounded=0;strokeWidth=2;fontSize=12;" vertex="1" parent="x6Mh1ce0G-waH1WDNx8j-18">
          <mxGeometry x="1095" y="680" width="310" height="120" as="geometry" />
        </mxCell>
        <mxCell id="x6Mh1ce0G-waH1WDNx8j-52" value="&lt;div style=&quot;&quot;&gt;&lt;div style=&quot;&quot;&gt;&lt;b&gt;To Remember&lt;/b&gt;&lt;/div&gt;&lt;div style=&quot;&quot;&gt;&lt;ul&gt;&lt;li&gt;There can only be &lt;b&gt;one&lt;/b&gt; root mgt group&lt;/li&gt;&lt;li&gt;Root mgt group access is not given by default&lt;/li&gt;&lt;li&gt;root mgt group can&#39;t be moved/deleted&lt;/li&gt;&lt;li&gt;Global admin must be elevated to &quot;User Access Admin&quot; of root mgt group.&lt;/li&gt;&lt;/ul&gt;&lt;/div&gt;&lt;/div&gt;" style="text;html=1;strokeColor=none;fillColor=none;align=left;verticalAlign=middle;whiteSpace=wrap;rounded=0;strokeWidth=2;fontSize=12;" vertex="1" parent="x6Mh1ce0G-waH1WDNx8j-18">
          <mxGeometry x="1095" y="800" width="310" height="85" as="geometry" />
        </mxCell>
        <mxCell id="x6Mh1ce0G-waH1WDNx8j-53" value="2" style="rounded=0;whiteSpace=wrap;html=1;strokeWidth=2;fontSize=24;" vertex="1" parent="x6Mh1ce0G-waH1WDNx8j-18">
          <mxGeometry x="1450" y="130" width="40" height="40" as="geometry" />
        </mxCell>
        <mxCell id="x6Mh1ce0G-waH1WDNx8j-54" value="&lt;p style=&quot;text-align: left;&quot;&gt;&lt;span style=&quot;text-align: center;&quot;&gt;&lt;font size=&quot;4&quot;&gt;&lt;b&gt;Azure Policies&lt;br&gt;&lt;/b&gt;&lt;/font&gt;&lt;/span&gt;&lt;span style=&quot;text-align: center;&quot;&gt;Used to enforce compliance &amp;amp; enable auditing&lt;/span&gt;&lt;/p&gt;&lt;p style=&quot;text-align: left;&quot;&gt;&lt;span style=&quot;text-align: center;&quot;&gt;&lt;br&gt;&lt;/span&gt;&lt;/p&gt;" style="rounded=0;whiteSpace=wrap;html=1;fontSize=12;align=left;verticalAlign=top;spacingLeft=60;strokeWidth=2;spacingTop=-7;" vertex="1" parent="x6Mh1ce0G-waH1WDNx8j-18">
          <mxGeometry x="1440" y="120" width="340" height="600" as="geometry" />
        </mxCell>
        <mxCell id="x6Mh1ce0G-waH1WDNx8j-55" value="&lt;div&gt;&lt;/div&gt;&lt;b&gt;Use Case&lt;br&gt;&lt;/b&gt;&lt;ul style=&quot;&quot;&gt;&lt;li&gt;Prohibit creation of certain resources/ services&lt;br&gt;&lt;/li&gt;&lt;li&gt;Multiple subscriptions in any org are associated w/ 1 AAD tenant&lt;/li&gt;&lt;/ul&gt;" style="text;html=1;strokeColor=none;fillColor=none;align=left;verticalAlign=middle;whiteSpace=wrap;rounded=0;strokeWidth=2;fontSize=12;" vertex="1" parent="x6Mh1ce0G-waH1WDNx8j-18">
          <mxGeometry x="1455" y="185" width="310" height="85" as="geometry" />
        </mxCell>
        <mxCell id="x6Mh1ce0G-waH1WDNx8j-66" style="edgeStyle=orthogonalEdgeStyle;rounded=1;orthogonalLoop=1;jettySize=auto;html=1;strokeWidth=1;fontSize=12;startArrow=none;startFill=0;endArrow=block;endFill=1;" edge="1" parent="x6Mh1ce0G-waH1WDNx8j-18" source="x6Mh1ce0G-waH1WDNx8j-58" target="x6Mh1ce0G-waH1WDNx8j-62">
          <mxGeometry relative="1" as="geometry">
            <Array as="points">
              <mxPoint x="1220" y="1230" />
              <mxPoint x="1100" y="1230" />
            </Array>
          </mxGeometry>
        </mxCell>
        <mxCell id="x6Mh1ce0G-waH1WDNx8j-67" style="edgeStyle=orthogonalEdgeStyle;rounded=1;orthogonalLoop=1;jettySize=auto;html=1;strokeWidth=1;fontSize=12;startArrow=none;startFill=0;endArrow=block;endFill=1;" edge="1" parent="x6Mh1ce0G-waH1WDNx8j-18" source="x6Mh1ce0G-waH1WDNx8j-58" target="x6Mh1ce0G-waH1WDNx8j-64">
          <mxGeometry relative="1" as="geometry" />
        </mxCell>
        <mxCell id="x6Mh1ce0G-waH1WDNx8j-68" style="edgeStyle=orthogonalEdgeStyle;rounded=1;orthogonalLoop=1;jettySize=auto;html=1;strokeWidth=1;fontSize=12;startArrow=none;startFill=0;endArrow=block;endFill=1;" edge="1" parent="x6Mh1ce0G-waH1WDNx8j-18" source="x6Mh1ce0G-waH1WDNx8j-58" target="x6Mh1ce0G-waH1WDNx8j-61">
          <mxGeometry relative="1" as="geometry">
            <Array as="points">
              <mxPoint x="1220" y="1230" />
              <mxPoint x="1340" y="1230" />
            </Array>
          </mxGeometry>
        </mxCell>
        <mxCell id="x6Mh1ce0G-waH1WDNx8j-58" value="Root Mgt Group" style="rounded=0;whiteSpace=wrap;html=1;" vertex="1" parent="x6Mh1ce0G-waH1WDNx8j-18">
          <mxGeometry x="1170" y="1170" width="100" height="40" as="geometry" />
        </mxCell>
        <mxCell id="x6Mh1ce0G-waH1WDNx8j-59" value="CMS SP1 Sub" style="rounded=0;whiteSpace=wrap;html=1;" vertex="1" parent="x6Mh1ce0G-waH1WDNx8j-18">
          <mxGeometry x="1230" y="1330" width="100" height="40" as="geometry" />
        </mxCell>
        <mxCell id="x6Mh1ce0G-waH1WDNx8j-60" value="CMS SP2 Sub" style="rounded=0;whiteSpace=wrap;html=1;" vertex="1" parent="x6Mh1ce0G-waH1WDNx8j-18">
          <mxGeometry x="1350" y="1330" width="100" height="40" as="geometry" />
        </mxCell>
        <mxCell id="x6Mh1ce0G-waH1WDNx8j-69" style="edgeStyle=orthogonalEdgeStyle;rounded=1;orthogonalLoop=1;jettySize=auto;html=1;entryX=0.5;entryY=0;entryDx=0;entryDy=0;strokeWidth=1;fontSize=12;startArrow=none;startFill=0;endArrow=block;endFill=1;" edge="1" parent="x6Mh1ce0G-waH1WDNx8j-18" source="x6Mh1ce0G-waH1WDNx8j-61" target="x6Mh1ce0G-waH1WDNx8j-60">
          <mxGeometry relative="1" as="geometry" />
        </mxCell>
        <mxCell id="x6Mh1ce0G-waH1WDNx8j-70" style="edgeStyle=orthogonalEdgeStyle;rounded=1;orthogonalLoop=1;jettySize=auto;html=1;entryX=0.5;entryY=0;entryDx=0;entryDy=0;strokeWidth=1;fontSize=12;startArrow=none;startFill=0;endArrow=block;endFill=1;" edge="1" parent="x6Mh1ce0G-waH1WDNx8j-18" source="x6Mh1ce0G-waH1WDNx8j-61" target="x6Mh1ce0G-waH1WDNx8j-59">
          <mxGeometry relative="1" as="geometry" />
        </mxCell>
        <mxCell id="x6Mh1ce0G-waH1WDNx8j-61" value="CMS Mgt Group" style="rounded=0;whiteSpace=wrap;html=1;" vertex="1" parent="x6Mh1ce0G-waH1WDNx8j-18">
          <mxGeometry x="1290" y="1250" width="100" height="40" as="geometry" />
        </mxCell>
        <mxCell id="x6Mh1ce0G-waH1WDNx8j-62" value="CPS SP1 Sub" style="rounded=0;whiteSpace=wrap;html=1;" vertex="1" parent="x6Mh1ce0G-waH1WDNx8j-18">
          <mxGeometry x="1050" y="1250" width="100" height="40" as="geometry" />
        </mxCell>
        <mxCell id="x6Mh1ce0G-waH1WDNx8j-64" value="CPS SP2 Sub" style="rounded=0;whiteSpace=wrap;html=1;" vertex="1" parent="x6Mh1ce0G-waH1WDNx8j-18">
          <mxGeometry x="1170" y="1250" width="100" height="40" as="geometry" />
        </mxCell>
        <mxCell id="x6Mh1ce0G-waH1WDNx8j-85" value="" style="group" vertex="1" connectable="0" parent="x6Mh1ce0G-waH1WDNx8j-18">
          <mxGeometry x="1450" y="300" width="320" height="80" as="geometry" />
        </mxCell>
        <mxCell id="x6Mh1ce0G-waH1WDNx8j-76" value="" style="rounded=0;whiteSpace=wrap;html=1;strokeWidth=2;fontSize=12;strokeColor=#008AD7;" vertex="1" parent="x6Mh1ce0G-waH1WDNx8j-85">
          <mxGeometry width="320" height="80" as="geometry" />
        </mxCell>
        <mxCell id="x6Mh1ce0G-waH1WDNx8j-83" value="" style="rounded=0;whiteSpace=wrap;html=1;strokeWidth=1;fontSize=12;strokeColor=#008AD7;aspect=fixed;" vertex="1" parent="x6Mh1ce0G-waH1WDNx8j-85">
          <mxGeometry x="10" y="10" width="60" height="60" as="geometry" />
        </mxCell>
        <mxCell id="x6Mh1ce0G-waH1WDNx8j-77" value="" style="sketch=0;aspect=fixed;html=1;points=[];align=center;image;fontSize=12;image=img/lib/mscae/Policy.svg;strokeColor=#808080;strokeWidth=2;fillColor=#E6E6E6;" vertex="1" parent="x6Mh1ce0G-waH1WDNx8j-85">
          <mxGeometry x="19.75" y="17.5" width="40.5" height="45" as="geometry" />
        </mxCell>
        <mxCell id="x6Mh1ce0G-waH1WDNx8j-84" value="&lt;b&gt;Policy Definition&lt;br&gt;&lt;/b&gt;Define Compliance Evaluation Criteria &amp;amp; Actions that should take place (Deny or audit)" style="text;html=1;strokeColor=none;fillColor=none;align=left;verticalAlign=top;whiteSpace=wrap;rounded=0;strokeWidth=1;fontSize=12;fontColor=#008AD7;" vertex="1" parent="x6Mh1ce0G-waH1WDNx8j-85">
          <mxGeometry x="80" y="10" width="230" height="62.5" as="geometry" />
        </mxCell>
        <mxCell id="x6Mh1ce0G-waH1WDNx8j-86" value="" style="group" vertex="1" connectable="0" parent="x6Mh1ce0G-waH1WDNx8j-18">
          <mxGeometry x="1450" y="390" width="320" height="80" as="geometry" />
        </mxCell>
        <mxCell id="x6Mh1ce0G-waH1WDNx8j-87" value="" style="rounded=0;whiteSpace=wrap;html=1;strokeWidth=2;fontSize=12;strokeColor=#008AD7;" vertex="1" parent="x6Mh1ce0G-waH1WDNx8j-86">
          <mxGeometry width="320" height="80" as="geometry" />
        </mxCell>
        <mxCell id="x6Mh1ce0G-waH1WDNx8j-88" value="" style="rounded=0;whiteSpace=wrap;html=1;strokeWidth=1;fontSize=12;strokeColor=#008AD7;aspect=fixed;" vertex="1" parent="x6Mh1ce0G-waH1WDNx8j-86">
          <mxGeometry x="10" y="10" width="60" height="60" as="geometry" />
        </mxCell>
        <mxCell id="x6Mh1ce0G-waH1WDNx8j-90" value="&lt;b&gt;Policy Assignment&lt;br&gt;&lt;/b&gt;The scope to assign a policy definition to" style="text;html=1;strokeColor=none;fillColor=none;align=left;verticalAlign=top;whiteSpace=wrap;rounded=0;strokeWidth=1;fontSize=12;fontColor=#008AD7;" vertex="1" parent="x6Mh1ce0G-waH1WDNx8j-86">
          <mxGeometry x="80" y="10" width="230" height="62.5" as="geometry" />
        </mxCell>
        <mxCell id="x6Mh1ce0G-waH1WDNx8j-91" value="" style="verticalLabelPosition=bottom;sketch=0;html=1;fillColor=#008AD7;strokeColor=#ffffff;verticalAlign=top;align=center;points=[[0,0.5,0],[0.125,0.25,0],[0.25,0,0],[0.5,0,0],[0.75,0,0],[0.875,0.25,0],[1,0.5,0],[0.875,0.75,0],[0.75,1,0],[0.5,1,0],[0.125,0.75,0]];pointerEvents=1;shape=mxgraph.cisco_safe.compositeIcon;bgIcon=mxgraph.cisco_safe.design.blank_device;resIcon=mxgraph.cisco_safe.design.policy_2;strokeWidth=1;fontSize=12;fontColor=#008AD7;" vertex="1" parent="x6Mh1ce0G-waH1WDNx8j-86">
          <mxGeometry x="15" y="18.75" width="50" height="45" as="geometry" />
        </mxCell>
        <mxCell id="x6Mh1ce0G-waH1WDNx8j-92" value="" style="group" vertex="1" connectable="0" parent="x6Mh1ce0G-waH1WDNx8j-18">
          <mxGeometry x="1450" y="480" width="320" height="80" as="geometry" />
        </mxCell>
        <mxCell id="x6Mh1ce0G-waH1WDNx8j-93" value="" style="rounded=0;whiteSpace=wrap;html=1;strokeWidth=2;fontSize=12;strokeColor=#008AD7;" vertex="1" parent="x6Mh1ce0G-waH1WDNx8j-92">
          <mxGeometry width="320" height="80" as="geometry" />
        </mxCell>
        <mxCell id="x6Mh1ce0G-waH1WDNx8j-94" value="" style="rounded=0;whiteSpace=wrap;html=1;strokeWidth=1;fontSize=12;strokeColor=#008AD7;aspect=fixed;" vertex="1" parent="x6Mh1ce0G-waH1WDNx8j-92">
          <mxGeometry x="10" y="10" width="60" height="60" as="geometry" />
        </mxCell>
        <mxCell id="x6Mh1ce0G-waH1WDNx8j-95" value="&lt;b&gt;Initiative Definition&lt;br&gt;&lt;/b&gt;Group of policies to achieve a single high-level goal together" style="text;html=1;strokeColor=none;fillColor=none;align=left;verticalAlign=top;whiteSpace=wrap;rounded=0;strokeWidth=1;fontSize=12;fontColor=#008AD7;" vertex="1" parent="x6Mh1ce0G-waH1WDNx8j-92">
          <mxGeometry x="80" y="10" width="230" height="62.5" as="geometry" />
        </mxCell>
        <mxCell id="x6Mh1ce0G-waH1WDNx8j-96" value="" style="verticalLabelPosition=bottom;sketch=0;html=1;fillColor=#008AD7;strokeColor=#ffffff;verticalAlign=top;align=center;points=[[0,0.5,0],[0.125,0.25,0],[0.25,0,0],[0.5,0,0],[0.75,0,0],[0.875,0.25,0],[1,0.5,0],[0.875,0.75,0],[0.75,1,0],[0.5,1,0],[0.125,0.75,0]];pointerEvents=1;shape=mxgraph.cisco_safe.compositeIcon;bgIcon=mxgraph.cisco_safe.design.blank_device;resIcon=mxgraph.cisco_safe.design.policy_2;strokeWidth=1;fontSize=12;fontColor=#008AD7;" vertex="1" parent="x6Mh1ce0G-waH1WDNx8j-92">
          <mxGeometry x="15.549999999999955" y="17.5" width="38.89" height="35" as="geometry" />
        </mxCell>
        <mxCell id="x6Mh1ce0G-waH1WDNx8j-97" value="" style="verticalLabelPosition=bottom;sketch=0;html=1;fillColor=#008AD7;strokeColor=#ffffff;verticalAlign=top;align=center;points=[[0,0.5,0],[0.125,0.25,0],[0.25,0,0],[0.5,0,0],[0.75,0,0],[0.875,0.25,0],[1,0.5,0],[0.875,0.75,0],[0.75,1,0],[0.5,1,0],[0.125,0.75,0]];pointerEvents=1;shape=mxgraph.cisco_safe.compositeIcon;bgIcon=mxgraph.cisco_safe.design.blank_device;resIcon=mxgraph.cisco_safe.design.policy_2;strokeWidth=1;fontSize=12;fontColor=#008AD7;" vertex="1" parent="x6Mh1ce0G-waH1WDNx8j-92">
          <mxGeometry x="25.549999999999955" y="27.5" width="38.89" height="35" as="geometry" />
        </mxCell>
        <mxCell id="x6Mh1ce0G-waH1WDNx8j-101" value="&lt;div style=&quot;&quot;&gt;&lt;div style=&quot;&quot;&gt;&lt;b&gt;To Remember&lt;/b&gt;&lt;/div&gt;&lt;div style=&quot;&quot;&gt;&lt;b&gt;&lt;br&gt;&lt;/b&gt;&lt;/div&gt;&lt;div style=&quot;&quot;&gt;Azure Policies service is used for:&lt;/div&gt;&lt;div style=&quot;&quot;&gt;&lt;ul&gt;&lt;li&gt;Create, Manage, Assign policies&lt;/li&gt;&lt;li&gt;Enforce Compliance on resources&lt;/li&gt;&lt;li&gt;Audit compliance&lt;/li&gt;&lt;li&gt;Deny Creation of resources outside of compliance&lt;/li&gt;&lt;/ul&gt;&lt;/div&gt;&lt;/div&gt;" style="text;html=1;strokeColor=none;fillColor=none;align=left;verticalAlign=middle;whiteSpace=wrap;rounded=0;strokeWidth=2;fontSize=12;" vertex="1" parent="x6Mh1ce0G-waH1WDNx8j-18">
          <mxGeometry x="1455" y="580" width="310" height="135" as="geometry" />
        </mxCell>
        <mxCell id="x6Mh1ce0G-waH1WDNx8j-102" value="&lt;div style=&quot;&quot;&gt;&lt;div style=&quot;&quot;&gt;&lt;b&gt;Policy Components&lt;/b&gt;&lt;/div&gt;&lt;/div&gt;" style="text;html=1;strokeColor=none;fillColor=none;align=left;verticalAlign=middle;whiteSpace=wrap;rounded=0;strokeWidth=2;fontSize=12;" vertex="1" parent="x6Mh1ce0G-waH1WDNx8j-18">
          <mxGeometry x="1450" y="260" width="310" height="37.5" as="geometry" />
        </mxCell>
      </root>
    </mxGraphModel>
  </diagram>
</mxfile>
